<?xml version="1.0" encoding="UTF-8"?>
<svg id="Layer_1" data-name="Layer 1" xmlns="http://www.w3.org/2000/svg" viewBox="0 0 1081 942">
  <defs>
    <style>
      .cls-1 {
        stroke: #000;
        stroke-miterlimit: 10;
      }
    </style>
  </defs>
  <polygon class="cls-1" points="288.04 693.83 114.5 522.29 114.5 137.5 47.5 137.5 47.5 189.5 .5 189.5 .5 .5 43.5 .5 43.5 55.5 306.5 55.5 306.5 .5 349.5 .5 349.5 191.5 306.5 191.5 306.5 137.5 234.5 137.5 234.5 398.11 408.04 571.84 288.04 693.83"/>
  <rect class="cls-1" x="457.5" y="301.5" width="173" height="640"/>
  <polygon class="cls-1" points="478.7 194.97 607.16 194.97 671.85 30.47 418.63 30.47 478.7 194.97"/>
  <polygon class="cls-1" points="791.96 693.83 965.5 522.29 965.5 137.5 1033.5 137.5 1033.5 189.5 1080.5 189.5 1080.5 .5 1037.5 .5 1037.5 55.5 774.5 55.5 774.5 .5 731.5 .5 731.5 191.5 773.5 191.5 773.5 137.5 845.5 137.5 845.5 398.11 671.96 571.84 791.96 693.83"/>
</svg>