<?xml version="1.0" encoding="UTF-8"?>
<svg id="Layer_2" xmlns="http://www.w3.org/2000/svg" version="1.1" viewBox="0 0 321.85 570.35">
  <!-- Generator: Adobe Illustrator 29.4.0, SVG Export Plug-In . SVG Version: 2.1.0 Build 152)  -->
  <defs>
    <style>
      .st0 {
        fill: none;
        stroke: #001e2d;
        stroke-miterlimit: 10;
        stroke-width: 2px;
      }
    </style>
  </defs>
  <path class="st0" d="M160.15,1.11s4.54-.25-8.36,0-14.29,12.9-14.29,12.9l.25,14.04s-1.64-.13-2.53,0-2.02,1.01-2.91,2.53c-.89,1.52,1.77,12.77,2.02,14.04s4.93,1.01,4.93,1.01c0,0,.34.29.87,6.62.43,5.13,13.3,10.78,18.17,12.74,1.14.46,1.84.71,1.84.71h1.55s19.48-7.12,20.01-13.45c.53-6.33.87-6.62.87-6.62,0,0,4.68.25,4.93-1.01s2.91-12.52,2.02-14.04-2.02-2.4-2.91-2.53-2.53,0-2.53,0l.25-14.04s-1.39-12.65-14.29-12.9-8.36,0-8.36,0"/>
  <path class="st0" d="M93.24,569.28c1.9.13,7.21-3.67,7.71-5.31,0,0,3.92-1.52,5.18-3.16s2.4-5.94,2.4-8.22,7.97-2.66,8.73-7.08-.89-12.01-.76-13.66,2.02-5.56,2.02-5.56c0,0,.89-2.02.76-4.55s-.89-5.82-.89-5.82c0,0,.38-13.78,2.53-21.75s6.96-25.8,6.96-25.8c0,0,3.67-3.67,3.79-6.2s-.25-17.7-.89-22.51-1.64-19.35-1.64-19.35c0,0-7.84,7.08-12.27,5.31s-7.08-6.45-9.61-9.61-5.56-3.54-5.56-3.54c0,0-7.71,22-7.59,37.68s6.32,52.23,6.07,57.92c-.25,5.69-2.53,13.91-2.28,18.59s-8.6,12.27-8.6,15.68-12.77,8.22-13.28,13.53.38,4.81.38,4.81l2.02.63s-1.26,1.77-.63,2.4,2.78,1.01,2.78,1.01c0,0-.63,1.21.63,2.03s2.66-.58,2.66-.58c0,0-.24,2.37,1.45,2.47s3.92-1.89,3.92-1.89c0,0,0,1.64.92,2.23s3.07.3,3.07.3h.02Z"/>
  <path class="st0" d="M97.55,339.03c-.26,14.31,3.5,43.45,7.51,48.24s8.89,1.48,10.19,1.83,3.92,14.55,10.63,15.42c6.71.87,14.11-11.24,15.07-17.08s6.27-34.72,9.41-41.99,7.58-20.6,8.19-26.96.44-18.29.44-18.29c0,0-7.14-4.44-9.67-12.37s-6.53-22.07-8.97-25.85-19.95-25.99-28.05-23.29c0,0-13.89,53.53-14.74,100.34h-.01Z"/>
  <path class="st0" d="M101.72,412.47s.57-8.7,1.36-12.81,1.33-13.39,1.33-13.39"/>
  <path class="st0" d="M129.16,420.31s7.12-10.43,8.5-14.55,3.29-18.32,3.29-18.32"/>
  <path class="st0" d="M114.18,239.57c3,1.23,8.9-1.93,12.11-5.06.86-.84,2.17-2.3,3.43-4.81,2.92-5.79,2.14-10.25,2.12-21.73,0-10.06-.02-15.09.94-19.05,1.15-4.75,2.46-6.95,2.12-11.3-.15-1.99-.75-5.6-4.31-11.24-4.28-6.78-8.68-9.87-14.86-15.3-3.81-3.35-9.1-8.28-15.05-14.89,3.46,10.8,2.15,15.36,0,17.44-1.23,1.19-2.79,1.63-3.06,3.06-.61,3.22,4.75,9.04,11.97,27.27,7.95,20.06-3.65,52.21,4.58,55.59v.02Z"/>
  <path class="st0" d="M57.03,161.37c-3.19,6.66-3.01,7.94-6.12,11.87s-8.22,7.58-13.33,15.06-22.64,51.39-22.64,51.39c.27,1.92,1.92,7.39,4.56,8.12s5.75,1,7.49,0l1.73-1s.09-2.74,4.56-6.57,12.96-8.95,18.07-15.43,13.78-19.26,16.25-26.47,8.67-12.41,8.67-12.41c0,0-8.22,4.47-11.5,5.2s-6.61-1.26-8.85-4.75c-3.65-5.66-.91-14.61-.91-14.61l2.01-10.41h0Z"/>
  <path class="st0" d="M76.29,185.92c1.64-1.56,11.78-16.16,15.8-20.17s7.73-10.63,9.21-18.58-3.12-12.19-3.12-12.19c0,0-3.64-2.23-11.59-3.12s-12.88.08-18.65,8.25c-8.3,11.74-10.91,21.25-10.91,21.25l-1.21,6.26c-.8,4.14-1.58,15.06.77,17.88s4.62,4.46,8.37,4.07c3.75-.39,11.33-3.65,11.33-3.65h0Z"/>
  <path class="st0" d="M19.49,281.98c1.86.07,3.73-1.37,3.98-2.86s.25-12.67,1.12-14.41,3.35-3.73,3.73-6.21-2.11-5.47-2.24-6.83.06-2.04.09-2.55c0,0-5.44,1.16-6.99.25s-4.47-6-5.13-7.99-.22-1.59-.22-1.59c0,0-1.16,9-2.83,11.71s-7.4,16.11-8.21,17.59-1.01,1.13-1.13,5.73-.94,13.34-.53,15.11c.41,1.77,1.79,9.79,2.58,9.82s3.59-.47,4.15-1.57c.19-.37.17-1.45.07-2.77-.03-.39-.07-.8-.11-1.22-.25-2.36-.63-4.95-.58-5.49.09-.94,1.29-8.78,1.67-9.13s3.18-4.12,3.43-5.16,2.3-5.1,3.3-5.1.25,7.24.44,7.84c.19.6.69,4.72,3.43,4.83h-.02Z"/>
  <path class="st0" d="M7.91,295.4l1.35.25c1.38.09,1.76-.98,1.92-1.92s-.06-11.71.38-12.62,2.27-3.62,2.27-4.5-.18-5.07-.18-5.07"/>
  <path class="st0" d="M97.58,124.64c-2.36,2.08-9.39,6.26-11.12,6.45s-4.09-.53-5.83,0-8.67,3.51-9.1,4.09,4.29-11.7,4.91-14.64,4.94-20.55,19.6-26.63c5.11-2.12,10.92-3.67,17.14-3.71,14.83-.08,16.95,3.13,16.95,3.13,0,0-6.97,3.64-13.09,9.59-8.06,7.83-16.11,18.76-19.45,21.71h-.01Z"/>
  <path class="st0" d="M133.47,92.75c1.82-.56,6.51-3.01,6.79-5.04s0-14.49,0-14.49c0,0-2.52,3.36-5.81,4.69s-16.52,6.3-18.27,7.7-4.55,4.06-4.2,4.06,6.16,0,8.47.42,7.14,1.19,8.82,1.82,2.59,1.75,2.59,1.75l1.61-.91h0Z"/>
  <path class="st0" d="M140.9,150.24c6.77-2.56,19.47-14.9,19.25-18.96s0-31.45,0-31.45c0,0-1.42-3.01-4.96-5.49s-14.84-2.48-18.28-2.03-20.01,8.27-22.57,12.19-7.44,8.78-10.04,12.59-4.52,6.4-8.58,8.97c-4.06,2.57-7.19,4.92-7.19,4.92,0,0,16.43,7.43,21.82,13.77s11.74,7.6,16.85,7.52,13.69-2.03,13.69-2.03h.01Z"/>
  <path class="st0" d="M160.15,271.54s-21.96-16.91-22.77-37.31-2.15-57.45-2.42-61.47-3.11-11.15-2.78-13.6,6.46-11.03,17.04-11.03,9.48,1.25,9.79,2.34.35,2.42.35,2.42"/>
  <line class="st0" x1="160.15" y1="264.55" x2="160.15" y2="232.16"/>
  <path class="st0" d="M144.39,218.83s14.1.48,14.76,1.43,1,6.67,1,6.67"/>
  <path class="st0" d="M140.58,215.68s16.1,1.81,17.24.48,2.33-9.43,2.33-9.43"/>
  <path class="st0" d="M144.39,194.63s12.95-.67,13.81,0,1.95,6.29,1.95,6.29"/>
  <path class="st0" d="M140.58,192.44s14.95.48,16.86-.67,2.71-10.67,2.71-10.67"/>
  <path class="st0" d="M144.39,170.73s11.62-1.43,12.86-.76,2.9,5.81,2.9,5.81"/>
  <path class="st0" d="M138.77,169.79s16.95-3.63,18.76-2.58,1.33-.38,1.43-1.43,1.19-8.29,1.19-8.29"/>
  <line class="st0" x1="140.26" y1="73.22" x2="140.14" y2="52.25"/>
  <path class="st0" d="M228.61,569.28c-1.9.13-7.21-3.67-7.71-5.31,0,0-3.92-1.52-5.18-3.16s-2.4-5.94-2.4-8.22-7.97-2.66-8.73-7.08.89-12.01.76-13.66-2.02-5.56-2.02-5.56c0,0-.89-2.02-.76-4.55s.89-5.82.89-5.82c0,0-.38-13.78-2.53-21.75s-6.96-25.8-6.96-25.8c0,0-3.67-3.67-3.79-6.2s.25-17.7.89-22.51,1.64-19.35,1.64-19.35c0,0,7.84,7.08,12.27,5.31s7.08-6.45,9.61-9.61,5.56-3.54,5.56-3.54c0,0,7.71,22,7.59,37.68s-6.32,52.23-6.07,57.92c.25,5.69,2.53,13.91,2.28,18.59s8.6,12.27,8.6,15.68,12.77,8.22,13.28,13.53-.38,4.81-.38,4.81l-2.02.63s1.26,1.77.63,2.4-2.78,1.01-2.78,1.01c0,0,.63,1.21-.63,2.03s-2.66-.58-2.66-.58c0,0,.24,2.37-1.45,2.47s-3.92-1.89-3.92-1.89c0,0,0,1.64-.92,2.23s-3.07.3-3.07.3h-.02Z"/>
  <path class="st0" d="M224.31,339.03c.26,14.31-3.5,43.45-7.51,48.24s-8.89,1.48-10.19,1.83-3.92,14.55-10.63,15.42-14.11-11.24-15.07-17.08-6.27-34.72-9.41-41.99-7.58-20.6-8.19-26.96-.44-18.29-.44-18.29c0,0,7.14-4.44,9.67-12.37s6.53-22.07,8.97-25.85,19.95-25.99,28.05-23.29c0,0,13.89,53.53,14.74,100.34h0Z"/>
  <path class="st0" d="M220.14,412.47s-.57-8.7-1.36-12.81c-.79-4.12-1.33-13.39-1.33-13.39"/>
  <path class="st0" d="M192.7,420.31s-7.12-10.43-8.5-14.55c-1.39-4.12-3.29-18.32-3.29-18.32"/>
  <path class="st0" d="M207.67,239.57c-3,1.23-8.9-1.93-12.11-5.06-.86-.84-2.17-2.3-3.43-4.81-2.92-5.79-2.14-10.25-2.12-21.73,0-10.06.02-15.09-.94-19.05-1.15-4.75-2.46-6.95-2.12-11.3.15-1.99.75-5.6,4.31-11.24,4.28-6.78,8.68-9.87,14.86-15.3,3.81-3.35,9.1-8.28,15.05-14.89-3.46,10.8-2.15,15.36,0,17.44,1.23,1.19,2.79,1.63,3.06,3.06.61,3.22-4.75,9.04-11.97,27.27-7.95,20.06,3.65,52.21-4.58,55.59v.02Z"/>
  <path class="st0" d="M264.82,161.37c3.19,6.66,3.01,7.94,6.12,11.87s8.22,7.58,13.33,15.06c5.11,7.49,22.64,51.39,22.64,51.39-.27,1.92-1.92,7.39-4.56,8.12s-5.75,1-7.49,0l-1.73-1s-.09-2.74-4.56-6.57-12.96-8.95-18.07-15.43c-5.11-6.48-13.78-19.26-16.25-26.47-2.46-7.21-8.67-12.41-8.67-12.41,0,0,8.22,4.47,11.5,5.2,3.28.73,6.61-1.26,8.85-4.75,3.65-5.66.91-14.61.91-14.61l-2.01-10.41h0Z"/>
  <path class="st0" d="M245.56,185.92c-1.64-1.56-11.78-16.16-15.8-20.17s-7.73-10.63-9.21-18.58c-1.49-7.95,3.12-12.19,3.12-12.19,0,0,3.64-2.23,11.59-3.12s12.88.08,18.65,8.25c8.3,11.74,10.91,21.25,10.91,21.25,0,0,.41,2.12,1.21,6.26s1.58,15.06-.77,17.88c-2.35,2.82-4.62,4.46-8.37,4.07s-11.33-3.65-11.33-3.65h0Z"/>
  <path class="st0" d="M302.36,281.98c-1.86.07-3.73-1.37-3.98-2.86s-.25-12.67-1.12-14.41-3.35-3.73-3.73-6.21,2.11-5.47,2.24-6.83-.06-2.04-.09-2.55c0,0,5.44,1.16,6.99.25s4.47-6,5.13-7.99.22-1.59.22-1.59c0,0,1.16,9,2.83,11.71s7.4,16.11,8.21,17.59,1.01,1.13,1.13,5.73.94,13.34.53,15.11-1.79,9.79-2.58,9.82-3.59-.47-4.15-1.57c-.19-.37-.17-1.45-.07-2.77.03-.39.07-.8.11-1.22.25-2.36.63-4.95.58-5.49-.09-.94-1.29-8.78-1.67-9.13s-3.18-4.12-3.43-5.16-2.3-5.1-3.3-5.1-.25,7.24-.44,7.84-.69,4.72-3.43,4.83h.02Z"/>
  <path class="st0" d="M313.94,295.4l-1.35.25c-1.38.09-1.76-.98-1.92-1.92s.06-11.71-.38-12.62-2.27-3.62-2.27-4.5.18-5.07.18-5.07"/>
  <path class="st0" d="M224.27,124.64c2.36,2.08,9.39,6.26,11.12,6.45s4.09-.53,5.83,0,8.67,3.51,9.1,4.09-4.29-11.7-4.91-14.64c-.63-2.94-4.94-20.55-19.6-26.63-5.11-2.12-10.92-3.67-17.14-3.71-14.83-.08-16.95,3.13-16.95,3.13,0,0,6.97,3.64,13.09,9.59,8.06,7.83,16.11,18.76,19.45,21.71h.01Z"/>
  <path class="st0" d="M188.38,92.75c-1.82-.56-6.51-3.01-6.79-5.04s0-14.49,0-14.49c0,0,2.52,3.36,5.81,4.69s16.52,6.3,18.27,7.7,4.55,4.06,4.2,4.06-6.16,0-8.47.42-7.14,1.19-8.82,1.82-2.59,1.75-2.59,1.75l-1.61-.91h0Z"/>
  <path class="st0" d="M180.95,150.24c-6.77-2.56-19.47-14.9-19.25-18.96s0-31.45,0-31.45c0,0,1.42-3.01,4.96-5.49s14.84-2.48,18.28-2.03,20.01,8.27,22.57,12.19,7.44,8.78,10.04,12.59,4.52,6.4,8.58,8.97c4.06,2.57,7.19,4.92,7.19,4.92,0,0-16.43,7.43-21.82,13.77-5.39,6.34-11.74,7.6-16.85,7.52s-13.69-2.03-13.69-2.03h0Z"/>
  <path class="st0" d="M161.7,271.54s21.96-16.91,22.77-37.31,2.15-57.45,2.42-61.47,3.11-11.15,2.78-13.6-6.46-11.03-17.04-11.03-9.48,1.25-9.79,2.34-.35,2.42-.35,2.42"/>
  <line class="st0" x1="161.7" y1="264.55" x2="161.7" y2="232.16"/>
  <path class="st0" d="M177.46,218.83s-14.1.48-14.76,1.43-1,6.67-1,6.67"/>
  <path class="st0" d="M181.27,215.68s-16.1,1.81-17.24.48-2.33-9.43-2.33-9.43"/>
  <path class="st0" d="M177.46,194.63s-12.95-.67-13.81,0-1.95,6.29-1.95,6.29"/>
  <path class="st0" d="M181.27,192.44s-14.95.48-16.86-.67-2.71-10.67-2.71-10.67"/>
  <path class="st0" d="M177.46,170.73s-11.62-1.43-12.86-.76-2.9,5.81-2.9,5.81"/>
  <path class="st0" d="M183.08,169.79s-16.95-3.63-18.76-2.58-1.33-.38-1.43-1.43-1.19-8.29-1.19-8.29"/>
  <line class="st0" x1="181.59" y1="73.22" x2="181.71" y2="52.25"/>
</svg>