<?xml version="1.0" encoding="UTF-8"?>
<svg id="Layer_2" xmlns="http://www.w3.org/2000/svg" version="1.1" viewBox="0 0 321.85 570.35">
  <!-- Generator: Adobe Illustrator 29.4.0, SVG Export Plug-In . SVG Version: 2.1.0 Build 152)  -->
  <defs>
    <style>
      .st0 {
        fill: none;
        stroke: #000;
        stroke-miterlimit: 10;
        stroke-width: 2px;
      }
    </style>
  </defs>
  <path class="st0" d="M98.29,159.7s6.3,20.5,7.2,22.56c3.25,7.44,4.9,5.79,5.85,9.27,1.49,5.43,3.17,14.76,2.93,19.15s-5.35,48.2-5.35,48.2c0,0,22.75-23.6,24.05-18.45,0,0,1.31-.59,2.65-4.74s0-19.03,1.22-23.05,11.71-22.81,13.54-29.03,3.66-15.37,3.05-19.76-20.73-53.91-24.64-55.5c0,0-23.05,18.18-25.25,19.27s-4.68,2.42-6.22,4.52c-1.77,2.41-1.83,4.39-.98,8.42s1.83,5.37,2.2,9.02-.25,10.12-.25,10.12h0Z"/>
  <path class="st0" d="M64.95,193.99c1.92,1.21,8.04-.45,11.31-3.87s8.63-9.38,12.2-14.88,8.92-12.58,9.82-15.52,1.34-8.85,0-12.76-3.59-11.15-.98-14.81c0,0-13.61,2-17.03,2.15s-5.21,1.19-7.89,4.02-10.12,12.06-12.06,16.97c-1.94,4.91-3.43,9.53-5.21,12.95s-5.06,11.47-4.02,13.25,10.42-2.08,12.2-.45-1.19,11.17,1.64,12.95h0Z"/>
  <path class="st0" d="M117.05,99.61c-5.97-.89-18.46,2.53-23.22,5.95s-13.25,11.91-15.63,17.12-5.81,15.63-5.81,15.63c0,0,4.78-3.73,7.89-4.02s7.79-.84,11.8-1.41,12.6-5.87,17.07-9.29,9.83-7.55,13.68-10.56,5.19-2.93,5.97-4.68-4.74-7.71-11.73-8.75h0Z"/>
  <path class="st0" d="M16.87,259.18c2.23,1.24,7.74,1.19,9.23,0s13.25-17.12,17.27-21.43,8.63-9.98,11.17-13.99,19.28-31.01,21.73-33.64-8.33,6.85-11.31,3.87.74-10.42-1.64-12.95-9.82,2.68-12.2.45-1.19-1.16-1.19-1.16c0,0-15.18,14.26-18.75,22.74s-17.86,47.64-18.61,49.13,1.64,5.51,4.32,7h-.02Z"/>
  <path class="st0" d="M42.32,264.69"/>
  <path class="st0" d="M12.55,252.19s-1.14,6.4-1.8,11.95-5.68,15.71-5.54,18.88,1.19,15.45,2.9,17.29,8.85,8.59,8.85,8.59c0,0,1.58-.26,1.85-3.03.07-.69-.25-1.6-.75-2.6-1.52-2.99-4.79-6.81-4.79-8.09,0-1.72,1.19-2.51,1.72-5.54s.4-5.41.4-5.41c0,0,1.47-.79,3.44-1.19s3.82-2.47,3.82-2.47c0,0,1.19,9.21,4.09,10.4s4.09-1.32,4.09-1.32c0,0-2.51-9.11-2.24-11.89s1.98-4.09,1.19-6.87-4.22-6.87-4.22-6.87l.55-4.82"/>
  <path class="st0" d="M18.82,283.02l-.8,12.41s3.43,4.62,2.24,6.87l-3.06-.54"/>
  <path class="st0" d="M103.66,567.6c2.5,0,7.65-.74,9.71-3.09s2.2-4.42,2.06-7.94-.36-11.76.04-15.01,1.28-3.53.84-5.88,5.15-36.18,8.39-45.45c0,0,3.56-9.58,4.63-11.67,0,0-3.79,6.15-7.5,5.74s-6.77-4.19-6.94-7.96c-.42-9.27-.98-8.83-2.3-8.83-1.03,0-4.78,7.48-7,11.39s-3.5,3.16-5.93,2.9-7.14-7.96-7.55-10.65,3.71,31.68,3.84,35.45-.14,27.43-1.14,29.86-7.21,9.44-8.76,10.11c0,0-1.48-.68-2.36-.27s-2.02,2.56-2.02,2.56c0,0-2.76-.88-3.77.74s-3.23,2.43-3.23,4.72,13.14,4.32,15.17,5.53,3.84,5.39,7.62,6.27,6.24,1.47,6.24,1.47l-.02.02Z"/>
  <path class="st0" d="M130.44,476.79c.63-1.88,2.38-5.26,2.32-8.15s-1.94-28.13-2.94-30.57-3.32-6.07-5.83-6.2-6.83,2.88-8.71,2.88-13.78-10.97-15.22-10.97h-2.7s-5.01,15.35-5.26,21.61-.88,20.42-.56,22.36,2.7,7.64,3.57,8.77,3.49,4.68,4.66,4.85,3.46.64,5.08-2.19,5.46-10.13,6.6-11.17,1.13-.94,1.66-.94,1.94,2.49,2,3.91.34,8.96,2.08,10.38,2.91,2.5,4.42,2.5,5.52-1.85,7.18-4.48l1.66-2.63v.04Z"/>
  <path class="st0" d="M129.86,436.89s-1.31-11.65-1.04-14.78,6.17-7.22,7.04-9.48,6.26-12.09,5.65-18.26c-.61-6.17-.44-3.56-.44-3.56,0,0-2.26,11.83-5.39,14.44-3.13,2.61-6.17,3.92-8.69,1.74-2.52-2.18-4.5-9.48-4.52-21.13,0,0,.12-1.14-.55-1.54s-5.81,14.91-8.67,15.84c0,0-.94.87-2,.9s-8.64-7.97-8.34-14.41c0,0-1.76,10.54-2.04,16.53s.28,7.99-.67,11.7-2.33,8.53-2.33,8.53c0,0,11.79,7.17,13.69,8.59s2.63,2.41,3.47,2.41,3.65-1.44,5.76-2.23,6.63,1.08,7.72,2.6,1.37,2.13,1.37,2.13h0Z"/>
  <path class="st0" d="M102.52,383.17s-4.62-21.75-4.67-31.06.29-39.3,3.09-51.35c2.8-12.06,4.48-25.84,7.63-32.57,0,0-.12-5.05.34-9.31s13.12-14.24,14.91-14.69c0,0-3.14,13.01-5.27,18.38s-4.15,8.52-4.26,14.58c-.12,6.05.34,17.94,8.19,21.86,7.85,3.92,11.21,5.05,18.61,5.16,7.4.12,12.11.56,14.8-2.13s3.7-4.93,3.7-4.93c0,0-2.92,30.83-5.16,38.12s-9.75,36.32-10.31,40.81-3.5,15.68-4.22,17.28-.55,11.16-6.99,13.4c-6.44,2.24-8.21-3.36-8.41-4.95s-1.66-15.06-1.8-16.28-.03-1.53-.58-1.6-7.83,15.47-8.92,15.94-2.3,1.6-4.88-1.94-4.21-5.91-4.62-8.62-1.18-6.12-1.18-6.12h0Z"/>
  <path class="st0" d="M139.22,304.16c6.77.47,11.7.85,14.29-1.15s6.19-4.52,6.27-7.36.34-40.63.34-40.63c0,0-1.51-9.87-6.52-12.46s-8.86-4.77-13.46-4.09-13.79,4.29-15.55,5.74-1.82,6.26-6.62,16.99c-6.7,14.97-3.39,30.03-.18,33.49s11.37,8.01,14.93,8.56c4.58.71,6.5.92,6.5.92v-.02Z"/>
  <path class="st0" d="M92.57,286.71"/>
  <path class="st0" d="M212.27,183.63"/>
  <path class="st0" d="M221.56,159.7s-6.3,20.5-7.2,22.56c-3.25,7.44-4.9,5.79-5.85,9.27-1.49,5.43-3.17,14.76-2.93,19.15s5.35,48.2,5.35,48.2c0,0-22.75-23.6-24.05-18.45,0,0-1.31-.59-2.65-4.74s0-19.03-1.22-23.05-11.71-22.81-13.54-29.03c-1.83-6.22-3.66-15.37-3.05-19.76s20.73-53.91,24.64-55.5c0,0,23.05,18.18,25.25,19.27s4.68,2.42,6.22,4.52c1.77,2.41,1.83,4.39.98,8.42s-1.83,5.37-2.2,9.02c-.37,3.66.25,10.12.25,10.12h0Z"/>
  <path class="st0" d="M254.9,193.99c-1.92,1.21-8.04-.45-11.31-3.87-3.27-3.43-8.63-9.38-12.2-14.88-3.57-5.51-8.92-12.58-9.82-15.52-.9-2.94-1.34-8.85,0-12.76s3.59-11.15.98-14.81c0,0,13.61,2,17.03,2.15s5.21,1.19,7.89,4.02,10.12,12.06,12.06,16.97c1.94,4.91,3.43,9.53,5.21,12.95,1.79,3.43,5.06,11.47,4.02,13.25s-10.42-2.08-12.2-.45,1.19,11.17-1.64,12.95h0Z"/>
  <path class="st0" d="M202.8,99.61c5.97-.89,18.46,2.53,23.22,5.95s13.25,11.91,15.63,17.12,5.81,15.63,5.81,15.63c0,0-4.78-3.73-7.89-4.02s-7.79-.84-11.8-1.41-12.6-5.87-17.07-9.29c-4.47-3.41-9.83-7.55-13.68-10.56s-5.19-2.93-5.97-4.68,4.74-7.71,11.73-8.75h0Z"/>
  <path class="st0" d="M302.98,259.18c-2.23,1.24-7.74,1.19-9.23,0s-13.25-17.12-17.27-21.43c-4.02-4.32-8.63-9.98-11.17-13.99s-19.28-31.01-21.73-33.64c-2.45-2.63,8.33,6.85,11.31,3.87s-.74-10.42,1.64-12.95c2.38-2.53,9.82,2.68,12.2.45s1.19-1.16,1.19-1.16c0,0,15.18,14.26,18.75,22.74s17.86,47.64,18.61,49.13-1.64,5.51-4.32,7h.02Z"/>
  <path class="st0" d="M277.52,264.69"/>
  <path class="st0" d="M307.29,252.19s1.14,6.4,1.8,11.95,5.68,15.71,5.54,18.88-1.19,15.45-2.9,17.29-8.85,8.59-8.85,8.59c0,0-1.58-.26-1.85-3.03-.07-.69.25-1.6.75-2.6,1.52-2.99,4.79-6.81,4.79-8.09,0-1.72-1.19-2.51-1.72-5.54s-.4-5.41-.4-5.41c0,0-1.47-.79-3.44-1.19s-3.82-2.47-3.82-2.47c0,0-1.19,9.21-4.09,10.4s-4.09-1.32-4.09-1.32c0,0,2.51-9.11,2.24-11.89s-1.98-4.09-1.19-6.87c.79-2.77,4.22-6.87,4.22-6.87l-.55-4.82"/>
  <path class="st0" d="M301.03,283.02l.8,12.41s-3.43,4.62-2.24,6.87l3.06-.54"/>
  <path class="st0" d="M216.19,567.6c-2.5,0-7.65-.74-9.71-3.09s-2.2-4.42-2.06-7.94c.15-3.53.36-11.76-.04-15.01-.4-3.23-1.28-3.53-.84-5.88s-5.15-36.18-8.39-45.45c0,0-3.56-9.58-4.63-11.67,0,0,3.79,6.15,7.5,5.74s6.77-4.19,6.94-7.96c.42-9.27.98-8.83,2.3-8.83,1.03,0,4.78,7.48,7,11.39s3.5,3.16,5.93,2.9,7.14-7.96,7.55-10.65-3.71,31.68-3.84,35.45.14,27.43,1.14,29.86,7.21,9.44,8.76,10.11c0,0,1.48-.68,2.36-.27s2.02,2.56,2.02,2.56c0,0,2.76-.88,3.77.74,1.01,1.62,3.23,2.43,3.23,4.72s-13.14,4.32-15.17,5.53c-2.02,1.21-3.84,5.39-7.62,6.27-3.77.88-6.24,1.47-6.24,1.47l.02.02Z"/>
  <path class="st0" d="M189.41,476.79c-.63-1.88-2.38-5.26-2.32-8.15.06-2.88,1.94-28.13,2.94-30.57,1.01-2.44,3.32-6.07,5.83-6.2,2.5-.12,6.83,2.88,8.71,2.88s13.78-10.97,15.22-10.97h2.7s5.01,15.35,5.26,21.61c.25,6.27.88,20.42.56,22.36s-2.7,7.64-3.57,8.77-3.49,4.68-4.66,4.85-3.46.64-5.08-2.19c-1.61-2.83-5.46-10.13-6.6-11.17s-1.13-.94-1.66-.94-1.94,2.49-2,3.91-.34,8.96-2.08,10.38-2.91,2.5-4.42,2.5-5.52-1.85-7.18-4.48l-1.66-2.63v.04Z"/>
  <path class="st0" d="M189.99,436.89s1.31-11.65,1.04-14.78c-.26-3.13-6.17-7.22-7.04-9.48s-6.26-12.09-5.65-18.26c.61-6.17.44-3.56.44-3.56,0,0,2.26,11.83,5.39,14.44,3.13,2.61,6.17,3.92,8.69,1.74,2.52-2.17,4.5-9.48,4.52-21.13,0,0-.12-1.14.55-1.54s5.81,14.91,8.67,15.84c0,0,.94.87,2,.9s8.64-7.97,8.34-14.41c0,0,1.76,10.54,2.04,16.53s-.28,7.99.67,11.7c.95,3.71,2.33,8.53,2.33,8.53,0,0-11.79,7.17-13.69,8.59s-2.63,2.41-3.47,2.41-3.65-1.44-5.76-2.23-6.64,1.08-7.72,2.6-1.37,2.13-1.37,2.13h0Z"/>
  <path class="st0" d="M217.33,383.17s4.62-21.75,4.67-31.06c.05-9.31-.29-39.3-3.09-51.35-2.8-12.05-4.48-25.84-7.63-32.57,0,0,.12-5.05-.34-9.31-.45-4.26-13.12-14.24-14.91-14.69,0,0,3.14,13.01,5.27,18.38,2.13,5.38,4.15,8.52,4.26,14.58.12,6.05-.34,17.94-8.19,21.86-7.85,3.92-11.21,5.05-18.61,5.16-7.4.12-12.11.56-14.8-2.13s-3.7-4.93-3.7-4.93c0,0,2.92,30.83,5.16,38.12,2.24,7.29,9.75,36.32,10.31,40.81.56,4.48,3.5,15.68,4.22,17.28s.55,11.16,6.99,13.4c6.44,2.24,8.21-3.36,8.41-4.95s1.66-15.06,1.8-16.28.03-1.53.58-1.6,7.83,15.47,8.92,15.94,2.3,1.6,4.88-1.94c2.58-3.52,4.21-5.91,4.62-8.62.41-2.71,1.18-6.12,1.18-6.12h0Z"/>
  <path class="st0" d="M180.63,304.16c-6.77.47-11.7.85-14.29-1.15s-6.19-4.52-6.27-7.36c-.08-2.84-.34-40.63-.34-40.63,0,0,1.51-9.87,6.52-12.46s8.86-4.77,13.46-4.09c4.6.67,13.79,4.29,15.55,5.74s1.82,6.26,6.62,16.99c6.7,14.97,3.39,30.03.18,33.49-3.22,3.46-11.37,8.01-14.93,8.56-4.58.71-6.5.92-6.5.92v-.02Z"/>
  <path class="st0" d="M227.28,286.71"/>
  <path class="st0" d="M207.76,99.47c-4.22-2.97-13.78-7.69-21.64-10.7-4.65-1.78-7.11-5.74-7.11-5.74l-.74-19.84s1.24-.38,1.62-2.37.5-3.74.5-3.74c0,0,2,.38,3.62-1.62s2.62-8.61,2.62-10.47-2.12-6.36-2.12-6.36c0,0,.25-9.48,0-10.85s.29-16.09-10.59-17.11c-1.37-.13-7.71-2.41-13.98-2.06-6.9.38-14.25,2.33-14.25,2.33-10.73,2.12-10.07,15.47-10.32,16.84s0,10.85,0,10.85c0,0-2.12,4.49-2.12,6.36s1,8.49,2.62,10.47,3.62,1.62,3.62,1.62c0,0,.12,1.74.5,3.74s1.62,2.37,1.62,2.37l-.74,19.84s-2.46,3.95-7.11,5.74c-7.86,3-17.42,7.73-21.64,10.7"/>
  <path class="st0" d="M134.55,238.35s1.62-1.1,1.67-8.03-1.8-12.22.61-17.67c2.42-5.45,9.81-16.9,12.49-26.19,2.68-9.29,4.09-22.59,4.09-22.59,0,0,3.89,10.45,6.5,10.45,4.26,0,6.58-9.25,6.58-9.25,0,0,.65,12.81,2.97,18.55s13.09,25.86,13.54,29.03.48,21.09,1.22,23.05,2.65,4.74,2.65,4.74c0,0-6.67-2.45-9.28-2.08s-9.75,1.82-12.81,5.24-5.07,9.55-5.07,9.55c0,0-2.33-7.89-4.48-9.36s-8.98-5.38-12.04-5.34-10.24,2-10.24,2l1.58-2.09h0Z"/>
  <path class="st0" d="M128.79,108.36s1.86,3.01,4.75,3.12,14.25-2.17,17.35-2.48,5.78-.21,8.98-.21,9.61.29,14.35,1.13,8.16,2.08,10.74,1.56,4.62-1.5,4.62-1.5c0,0-23.09,47.7-23.15,53.87s-4.07,11.01-6.5,10.45-5.91-9.1-7.73-14.48-7.77-21.76-10.17-25.5-13.24-25.96-13.24-25.96h0Z"/>
  <path class="st0" d="M133.95,111.84c2,.43,7.85-.94,10.91-1.57s10.99-1.65,15.38-1.57,17.89,2.43,21.35,2.59,3.37,1.1,5.41.24,6.99-6.36,10.91-8.4,7.77-3.77,9.5-3.92c0,0-18.84-12.33-31.87-11.46s-11.85.94-14.99,1.1-18.37-1.49-24.17-.08-21.5,8.24-22.84,9.97c0,0,9.18,2.36,12.48,5.73s4.63,6.67,7.93,7.38h0Z"/>
</svg>