<?xml version="1.0" encoding="UTF-8"?>
<svg id="Layer_1" xmlns="http://www.w3.org/2000/svg" version="1.1" viewBox="0 0 448 512">
  <!-- Generator: Adobe Illustrator 29.5.1, SVG Export Plug-In . SVG Version: 2.1.0 Build 141)  -->
  <defs>
    <style>
      .st0 {
        fill: #fff;
      }
    </style>
  </defs>
  <path class="st0" d="M448,209.91c-44.03.11-86.97-13.62-122.77-39.25v178.72c-.03,89.77-72.84,162.52-162.61,162.49C72.85,511.84.1,439.03.13,349.26c.03-89.77,72.84-162.52,162.61-162.49,7.45,0,14.88.52,22.26,1.54v89.89c-39.31-12.37-81.21,9.48-93.57,48.79s9.48,81.21,48.79,93.57,81.21-9.48,93.57-48.79c2.28-7.25,3.44-14.8,3.44-22.39V0h88c-.06,7.43.56,14.85,1.86,22.17h0c6.18,33.01,25.68,62.03,53.91,80.22,19.87,13.14,43.17,20.15,67,20.14v87.38Z"/>
</svg>